<?xml version="1.0" standalone="no"?>
<!DOCTYPE svg PUBLIC "-//W3C//DTD SVG 20010904//EN"
 "http://www.w3.org/TR/2001/REC-SVG-20010904/DTD/svg10.dtd">
<svg version="1.0" xmlns="http://www.w3.org/2000/svg"
 width="248.000000pt" height="90.000000pt" viewBox="0 0 248.000000 90.000000"
 preserveAspectRatio="xMidYMid meet">

<g transform="translate(0.000000,90.000000) scale(0.100000,-0.100000)"
fill="#000000" stroke="none">
<path d="M185 811 c-49 -12 -75 -34 -86 -72 -16 -53 2 -82 101 -161 47 -38 91
-81 99 -97 19 -39 7 -77 -29 -96 -41 -21 -79 -19 -133 9 -51 25 -58 21 -28
-15 17 -22 27 -24 99 -24 115 0 162 34 162 117 0 49 -29 84 -127 157 -74 56
-88 71 -91 98 -2 23 3 35 20 47 26 18 90 21 120 5 25 -13 32 -8 15 13 -14 19
-80 29 -122 19z"/>
<path d="M615 784 c-83 -45 -125 -115 -125 -209 0 -132 86 -225 207 -225 123
1 206 91 206 225 1 79 -33 149 -91 190 -53 36 -148 46 -197 19z m155 -34 c47
-33 65 -84 65 -180 0 -97 -18 -139 -75 -177 -114 -78 -236 68 -200 240 25 122
125 178 210 117z"/>
<path d="M1064 791 c-2 -2 -4 -100 -4 -218 l0 -213 98 0 c115 0 157 16 186 71
18 32 18 41 7 78 -9 32 -22 49 -55 70 l-43 27 23 28 c39 44 29 111 -19 138
-21 12 -184 28 -193 19z m139 -32 c12 -7 25 -17 29 -23 15 -22 8 -83 -12 -109
l-20 -25 34 -22 c45 -27 63 -77 47 -131 -14 -46 -51 -69 -111 -69 l-40 0 0
195 0 195 26 0 c14 0 35 -5 47 -11z"/>
<path d="M1543 792 l-23 -3 0 -215 0 -214 30 0 30 0 0 115 0 115 120 0 120 0
0 -115 0 -115 30 0 30 0 0 213 c0 118 -2 216 -5 219 -3 3 -17 3 -30 0 -24 -4
-25 -7 -25 -93 l0 -89 -120 0 -120 0 0 89 c0 50 -3 91 -7 93 -5 2 -18 2 -30 0z"/>
<path d="M2187 770 c-8 -19 -49 -119 -91 -221 -42 -103 -76 -189 -76 -193 0
-3 6 -3 14 0 8 3 24 32 36 65 l22 59 88 0 87 0 24 -60 c22 -56 26 -60 56 -60
18 0 33 2 33 4 0 4 -42 108 -134 331 l-45 110 -14 -35z m27 -162 c16 -40 31
-79 33 -85 4 -10 -13 -13 -67 -13 -65 0 -71 2 -66 18 27 72 62 152 66 152 3 0
18 -33 34 -72z"/>
<path d="M900 110 c0 -27 5 -50 10 -50 6 0 10 7 10 15 0 8 4 15 9 15 5 0 14
-7 21 -15 18 -22 33 -19 20 4 -7 13 -7 22 0 26 16 10 12 42 -6 49 -9 3 -27 6
-40 6 -22 0 -24 -4 -24 -50z m58 18 c-7 -19 -38 -22 -38 -4 0 10 9 16 21 16
12 0 19 -5 17 -12z"/>
<path d="M1030 110 l0 -50 43 2 c36 1 38 2 10 5 -36 5 -47 33 -13 33 11 0 20
5 20 10 0 6 -9 10 -20 10 -11 0 -20 5 -20 10 0 6 14 10 31 10 17 0 28 4 24 10
-3 6 -22 10 -41 10 l-34 0 0 -50z"/>
<path d="M1156 113 c-9 -25 -13 -49 -10 -52 4 -3 9 0 11 7 6 15 35 16 51 0 20
-20 23 -3 6 45 -9 26 -22 47 -29 47 -7 0 -20 -21 -29 -47z m44 -15 c0 -5 -7
-8 -15 -8 -17 0 -18 2 -9 25 5 13 8 14 15 3 5 -7 9 -16 9 -20z"/>
<path d="M1280 110 l0 -50 38 1 c30 2 32 3 10 6 -26 4 -28 8 -28 49 0 24 -4
44 -10 44 -5 0 -10 -22 -10 -50z"/>
<path d="M1365 150 c-3 -5 3 -10 14 -10 18 0 21 -6 21 -40 0 -22 5 -40 10 -40
6 0 10 18 10 40 0 29 4 40 15 40 8 0 15 5 15 10 0 6 -18 10 -39 10 -22 0 -43
-4 -46 -10z"/>
<path d="M1490 152 c0 -5 7 -17 15 -28 8 -10 15 -29 15 -41 0 -13 5 -23 10
-23 6 0 10 7 10 16 0 9 9 32 21 50 11 19 16 34 10 34 -6 0 -16 -10 -22 -22
l-12 -22 -17 22 c-19 23 -30 28 -30 14z"/>
</g>
</svg>
